<?xml version="1.0" encoding="UTF-8" standalone="no"?>
<!-- Created with PhotoLine 23.02 (www.pl32.com) -->
<!DOCTYPE svg PUBLIC "-//W3C//DTD SVG 1.1//EN" "http://www.w3.org/Graphics/SVG/1.1/DTD/svg11.dtd">
<svg width="194" height="194" viewBox="0 0 194 194" version="1.1" xmlns="http://www.w3.org/2000/svg" xmlns:xlink="http://www.w3.org/1999/xlink">
  <g transform="matrix(1.911589 0 0 1.911589 0 0)">
    <path fill="#f2f3f3" d="M0 51 C0 22.86 22.86 -0 51 0 C79.14 0 102 22.86 102 51 C102 79.14 79.14 102 51 102 C22.86 102 -0 79.14 0 51 Z"/>
    <g transform="matrix(1 0 0 1 16.125 13.375)">
      <text kerning="0" font-family="Fira Sans" font-weight="700" font-size="13" fill="#0c9a56">
        <tspan x="0" y="12.15">anniv</tspan>
        <tspan x="32.3" y="12.15">e</tspan>
        <tspan x="39.47" y="12.15">r</tspan>
        <tspan x="44.55" y="12.15">s</tspan>
        <tspan x="50.71" y="12.15">a</tspan>
        <tspan x="57.82" y="12.15">ry</tspan>
      </text>
    </g>
    <g transform="matrix(1 0 0 1 27.625 63.125)">
      <text kerning="0" font-family="Fira Sans" font-weight="700" font-size="20" fill="#0c9a56">
        <tspan x="0" y="18.7">y</tspan>
        <tspan x="10.1" y="18.7">e</tspan>
        <tspan x="20.94" y="18.7">a</tspan>
        <tspan x="31.87" y="18.7">r</tspan>
        <tspan x="39.69" y="18.7">s</tspan>
      </text>
    </g>
    <path fill="#0c9a56" d="M57.58 46.19 C59.75 47.28 61.37 48.56 62.42 50.05 C63.47 51.5 64 53.18 64 55.1 C64 56.91 63.49 58.58 62.47 60.1 C61.48 61.58 60.02 62.77 58.11 63.66 C56.19 64.55 53.94 65 51.36 65 C48.83 65 46.63 64.57 44.75 63.71 C42.9 62.82 41.47 61.65 40.48 60.2 C39.49 58.71 39 57.06 39 55.25 C39 51.52 41.01 48.75 45.03 46.93 C41.87 45.02 40.29 42.38 40.29 39.01 C40.29 37.23 40.77 35.66 41.73 34.31 C42.69 32.95 44.01 31.9 45.7 31.14 C47.43 30.38 49.38 30 51.55 30 C54.84 30 57.52 30.78 59.59 32.33 C61.7 33.84 62.75 35.94 62.75 38.61 C62.75 40.1 62.32 41.5 61.46 42.82 C60.63 44.11 59.34 45.23 57.58 46.19 Z M51.6 35.3 C50.38 35.3 49.41 35.63 48.67 36.29 C47.97 36.95 47.62 37.89 47.62 39.11 C47.62 40.23 47.92 41.16 48.53 41.88 C49.17 42.57 50.17 43.22 51.55 43.81 L52.55 44.21 C53.64 43.48 54.39 42.72 54.8 41.93 C55.22 41.11 55.43 40.13 55.43 39.01 C55.43 37.89 55.09 37 54.42 36.34 C53.78 35.64 52.84 35.3 51.6 35.3 Z M51.6 59.41 C53.13 59.41 54.31 59.01 55.14 58.22 C56 57.39 56.43 56.34 56.43 55.05 C56.43 53.7 56.07 52.64 55.33 51.88 C54.6 51.09 53.3 50.35 51.45 49.65 L49.87 49.06 C47.7 50.31 46.61 52.24 46.61 54.85 C46.61 56.24 47.06 57.34 47.96 58.17 C48.85 58.99 50.06 59.41 51.6 59.41 Z"/>
  </g>
</svg>
