<svg width="102" height="102" viewBox="0 0 102 102" fill="none" xmlns="http://www.w3.org/2000/svg">
<circle cx="51" cy="51" r="51" fill="#F2F3F3"/>
<path d="M41.6457 22.768V19.392H39.3097V22.768H36.7817V14.272H39.3097V17.52H41.6457V14.272H44.1737V22.768H41.6457Z" fill="#0C9A56"/>
<path d="M52.9087 20.304C52.9087 20.624 52.9514 20.8587 53.0367 21.008C53.1327 21.1573 53.282 21.2693 53.4847 21.344L52.9567 22.992C52.434 22.9493 52.0074 22.8373 51.6767 22.656C51.346 22.464 51.09 22.1653 50.9087 21.76C50.354 22.6133 49.5007 23.04 48.3487 23.04C47.506 23.04 46.834 22.7947 46.3327 22.304C45.8314 21.8133 45.5807 21.1733 45.5807 20.384C45.5807 19.456 45.922 18.7467 46.6047 18.256C47.2874 17.7653 48.274 17.52 49.5647 17.52H50.4287V17.152C50.4287 16.6507 50.322 16.3093 50.1087 16.128C49.8954 15.936 49.522 15.84 48.9887 15.84C48.7114 15.84 48.3754 15.8827 47.9807 15.968C47.586 16.0427 47.1807 16.1493 46.7647 16.288L46.1887 14.624C46.722 14.4213 47.266 14.2667 47.8207 14.16C48.386 14.0533 48.9087 14 49.3887 14C50.6047 14 51.4954 14.2507 52.0607 14.752C52.626 15.2533 52.9087 16.0053 52.9087 17.008V20.304ZM49.0847 21.232C49.6607 21.232 50.1087 20.96 50.4287 20.416V18.912H49.8047C49.2287 18.912 48.7967 19.0133 48.5087 19.216C48.2314 19.4187 48.0927 19.7333 48.0927 20.16C48.0927 20.5013 48.178 20.768 48.3487 20.96C48.53 21.1413 48.7754 21.232 49.0847 21.232Z" fill="#0C9A56"/>
<path d="M64.2183 22.768H61.8183L61.6263 19.728C61.605 19.1947 61.5943 18.8107 61.5943 18.576C61.5943 18.0533 61.621 17.3547 61.6743 16.48L60.2983 21.904H58.2023L56.8743 16.496C56.9276 17.0507 56.9543 17.6853 56.9543 18.4C56.9543 18.688 56.9436 19.1307 56.9223 19.728L56.7783 22.768H54.3943L55.1143 14.272H58.0903L59.2583 19.744L60.4583 14.272H63.4823L64.2183 22.768Z" fill="#0C9A56"/>
<path d="M35.5181 75.248C36.5847 75.248 37.3794 75.6427 37.9021 76.432C38.4247 77.2213 38.6861 78.3253 38.6861 79.744C38.6861 80.6187 38.5474 81.4027 38.2701 82.096C38.0034 82.7787 37.6141 83.3173 37.1021 83.712C36.5901 84.096 35.9927 84.288 35.3101 84.288C34.4567 84.288 33.7687 83.9947 33.2461 83.408V87.296L30.7181 87.568V75.52H32.9421L33.0701 76.464C33.4007 76.048 33.7794 75.744 34.2061 75.552C34.6327 75.3493 35.0701 75.248 35.5181 75.248ZM34.5421 82.432C35.5554 82.432 36.0621 81.5467 36.0621 79.776C36.0621 78.7733 35.9501 78.08 35.7261 77.696C35.5021 77.3013 35.1661 77.104 34.7181 77.104C34.4301 77.104 34.1581 77.1893 33.9021 77.36C33.6567 77.5307 33.4381 77.776 33.2461 78.096V81.68C33.5874 82.1813 34.0194 82.432 34.5421 82.432Z" fill="#0C9A56"/>
<path d="M43.9449 75.248C45.2463 75.248 46.2649 75.648 47.0009 76.448C47.7369 77.2373 48.1049 78.3467 48.1049 79.776C48.1049 80.6827 47.9343 81.4773 47.5929 82.16C47.2623 82.832 46.7823 83.3547 46.1529 83.728C45.5343 84.1013 44.7983 84.288 43.9449 84.288C42.6543 84.288 41.6356 83.8933 40.8889 83.104C40.1529 82.304 39.7849 81.1893 39.7849 79.76C39.7849 78.8533 39.9503 78.064 40.2809 77.392C40.6223 76.7093 41.1023 76.1813 41.7209 75.808C42.3503 75.4347 43.0916 75.248 43.9449 75.248ZM43.9449 77.104C43.4329 77.104 43.0489 77.3227 42.7929 77.76C42.5369 78.1867 42.4089 78.8533 42.4089 79.76C42.4089 80.688 42.5316 81.3653 42.7769 81.792C43.0329 82.2187 43.4223 82.432 43.9449 82.432C44.4569 82.432 44.8409 82.2187 45.0969 81.792C45.3529 81.3547 45.4809 80.6827 45.4809 79.776C45.4809 78.848 45.3529 78.1707 45.0969 77.744C44.8516 77.3173 44.4676 77.104 43.9449 77.104Z" fill="#0C9A56"/>
<path d="M57.2407 75.52L54.9847 79.456L57.4327 84.016H54.7607L52.9047 80.368H52.1367V84.016H49.6087V75.52H52.1367V78.832H52.9687L54.8087 75.52H57.2407Z" fill="#0C9A56"/>
<path d="M60.9023 75.52V84.016H58.3743V75.52H60.9023ZM59.6223 71.04C60.0596 71.04 60.417 71.1787 60.6943 71.456C60.9823 71.7227 61.1263 72.064 61.1263 72.48C61.1263 72.896 60.9823 73.2427 60.6943 73.52C60.417 73.7867 60.0596 73.92 59.6223 73.92C59.185 73.92 58.8276 73.7867 58.5503 73.52C58.273 73.2427 58.1343 72.896 58.1343 72.48C58.1343 72.064 58.273 71.7227 58.5503 71.456C58.8276 71.1787 59.185 71.04 59.6223 71.04Z" fill="#0C9A56"/>
<path d="M68.1219 79.344C69.5619 79.5147 70.2819 80.2133 70.2819 81.44C70.2819 82.304 69.9406 82.9493 69.2579 83.376C68.5859 83.8027 67.6633 84.016 66.4899 84.016H62.8899V75.6C64.1593 75.3653 65.2793 75.248 66.2499 75.248C67.4019 75.248 68.2979 75.4453 68.9379 75.84C69.5886 76.224 69.9139 76.7947 69.9139 77.552C69.9139 78.032 69.7593 78.4267 69.4499 78.736C69.1513 79.0347 68.7086 79.2373 68.1219 79.344ZM66.2019 76.864C65.8713 76.864 65.6099 76.8747 65.4179 76.896V78.848H66.3139C66.6659 78.848 66.9379 78.768 67.1299 78.608C67.3219 78.4373 67.4179 78.1813 67.4179 77.84C67.4179 77.1893 67.0126 76.864 66.2019 76.864ZM66.4099 82.352C67.2633 82.352 67.6899 81.9733 67.6899 81.216C67.6899 80.864 67.5886 80.6027 67.3859 80.432C67.1833 80.2613 66.8633 80.176 66.4259 80.176H65.4179V82.352H66.4099Z" fill="#0C9A56"/>
<path d="M57.5824 46.1881C59.7535 47.2772 61.3659 48.5644 62.4195 50.0495C63.4732 51.5016 64 53.1848 64 55.099C64 56.9142 63.4891 58.5809 62.4674 60.099C61.4777 61.5842 60.0249 62.7723 58.1092 63.6634C56.1935 64.5545 53.9425 65 51.3563 65C48.834 65 46.6309 64.571 44.7471 63.7129C42.8953 62.8218 41.4745 61.6502 40.4847 60.198C39.4949 58.7129 39 57.0627 39 55.2475C39 51.5182 41.0115 48.7459 45.0345 46.9307C41.8736 45.0165 40.2931 42.3762 40.2931 39.0099C40.2931 37.2277 40.772 35.6601 41.7299 34.3069C42.6877 32.9538 44.0128 31.8977 45.705 31.1386C47.4291 30.3795 49.3768 30 51.5479 30C54.8365 30 57.5185 30.7756 59.5939 32.3267C61.7012 33.8449 62.7548 35.9406 62.7548 38.6139C62.7548 40.099 62.3238 41.5017 61.4617 42.8218C60.6315 44.1089 59.3384 45.231 57.5824 46.1881ZM51.5958 35.297C50.3825 35.297 49.4087 35.6271 48.6743 36.2871C47.9719 36.9472 47.6207 37.8878 47.6207 39.1089C47.6207 40.231 47.924 41.1551 48.5307 41.8812C49.1692 42.5743 50.175 43.2178 51.5479 43.8119L52.5536 44.2079C53.6392 43.4818 54.3895 42.7228 54.8046 41.9307C55.2197 41.1056 55.4272 40.132 55.4272 39.0099C55.4272 37.8878 55.092 36.9967 54.4215 36.3366C53.7829 35.6436 52.841 35.297 51.5958 35.297ZM51.5958 59.4059C53.1284 59.4059 54.3097 59.0099 55.1398 58.2178C56.0019 57.3927 56.433 56.3366 56.433 55.0495C56.433 53.6964 56.0658 52.6403 55.3314 51.8812C54.5971 51.0891 53.304 50.3465 51.4521 49.6535L49.8716 49.0594C47.7005 50.3135 46.6149 52.2442 46.6149 54.8515C46.6149 56.2376 47.0619 57.3432 47.9559 58.1683C48.8499 58.9934 50.0632 59.4059 51.5958 59.4059Z" fill="#0C9A56"/>
</svg>
